<svg width="656" height="505" xmlns="http://www.w3.org/2000/svg" xmlns:xlink="http://www.w3.org/1999/xlink" xml:space="preserve" overflow="hidden"><defs><clipPath id="clip0"><rect x="1598" y="851" width="656" height="505"/></clipPath><clipPath id="clip1"><rect x="1655" y="851" width="273" height="146"/></clipPath><clipPath id="clip2"><rect x="1655" y="851" width="273" height="146"/></clipPath><clipPath id="clip3"><rect x="1598" y="1225" width="387" height="131"/></clipPath><clipPath id="clip4"><rect x="1598" y="1225" width="387" height="131"/></clipPath><clipPath id="clip5"><rect x="1639" y="1023" width="615" height="176"/></clipPath><clipPath id="clip6"><rect x="1639" y="1023" width="615" height="176"/></clipPath><clipPath id="clip7"><rect x="1639" y="1023" width="615" height="176"/></clipPath></defs><g clip-path="url(#clip0)" transform="translate(-1598 -851)"><g clip-path="url(#clip1)"><text font-family="Siemreap,Siemreap_MSFontService,sans-serif" font-weight="400" font-size="50" transform="translate(1691.23 941)">ហត្ថលេ</text></g><g clip-path="url(#clip2)"><text font-family="Siemreap,Siemreap_MSFontService,sans-serif" font-weight="400" font-size="50" transform="translate(1841.38 941)">ខា</text></g><g clip-path="url(#clip3)"><text font-family="Khmer OS Muol Light,Khmer OS Muol Light_MSFontService,sans-serif" font-weight="300" font-size="50" transform="translate(1641.1 1307)">ឌឹប សាវឿ</text></g><g clip-path="url(#clip4)"><text font-family="Khmer OS Muol Light,Khmer OS Muol Light_MSFontService,sans-serif" font-weight="300" font-size="50" transform="translate(1897.65 1307)">ន</text></g><g clip-path="url(#clip5)"><g clip-path="url(#clip6)"><g clip-path="url(#clip7)"><path d="M74.3413 8.56517C73.9295 8.373 73.4628 8.56517 73.2706 8.97696 72.6667 10.377 72.1451 11.7497 71.651 13.1772 71.1568 14.5773 70.6901 16.0048 70.2509 17.4323 69.3998 20.2325 68.6586 23.0875 68.0272 25.9426L66.8468 29.8134C66.7919 29.9232 66.737 30.033 66.7095 30.1703 66.435 30.8017 66.0781 31.4056 65.6938 31.9821 65.3094 32.5312 64.8427 32.9704 64.3211 33.3273 63.827 33.6567 63.223 33.794 62.6465 33.7391 62.0426 33.6567 61.4935 33.3822 61.0543 32.9704 60.8347 32.7508 60.6151 32.5037 60.4503 32.2567 60.2856 31.9821 60.1209 31.6802 59.9837 31.3507 59.6817 30.7193 59.3797 30.033 59.1052 29.3467 57.9796 26.6289 56.909 23.8562 55.5913 21.1384 54.9598 19.7658 54.2186 18.4481 53.3951 17.1852 52.9558 16.5264 52.4342 15.9224 51.8303 15.4008 51.5008 15.0989 51.1165 14.8792 50.6773 14.742 50.4302 14.6596 50.2106 14.6322 49.9635 14.6322 49.7164 14.6322 49.4694 14.6871 49.2223 14.7969 48.783 14.989 48.4262 15.2636 48.1242 15.6205 47.8771 15.9224 47.63 16.2519 47.4379 16.6087 47.0535 17.2676 46.7241 17.9539 46.4221 18.6677 45.8731 20.0678 45.4064 21.4953 45.0495 22.9777 44.3632 25.8877 43.869 28.8251 43.5945 31.79 43.2925 34.7548 43.1278 37.7197 43.0729 40.6846 42.9906 43.6494 43.1278 46.6417 43.4573 49.6066 43.5396 50.3753 43.7043 51.1165 43.9789 51.8577 44.0612 52.0499 44.1436 52.2421 44.2808 52.4342 44.4181 52.6538 44.6103 52.8186 44.8573 52.9009 45.1044 52.9833 45.4064 52.9558 45.6535 52.846 45.7633 52.7911 45.8456 52.7362 45.9554 52.6813 46.0378 52.6264 46.1202 52.544 46.2025 52.4891 46.779 51.9675 47.2732 51.3636 47.6849 50.7047 48.0967 50.0733 48.4811 49.4419 48.8654 48.8105 49.6066 47.5202 50.2929 46.2025 50.9792 44.9122 51.6656 43.5945 52.3244 42.2494 52.9009 40.8767 54.0814 38.1315 54.9598 35.2764 55.5364 32.3665 55.6736 31.6252 55.7834 30.884 55.8658 30.1703 55.9481 29.429 56.003 28.6878 56.003 27.9466 56.0579 26.4367 55.8383 24.9543 55.3991 23.5268 55.3991 23.4993 55.3716 23.4444 55.3716 23.417 56.2776 25.5308 57.1286 27.6995 57.9796 29.8408 58.2541 30.5546 58.5287 31.2135 58.8581 31.9272 59.0228 32.2841 59.1875 32.641 59.4071 32.9979 59.6542 33.3548 59.9287 33.6842 60.2307 33.9587 60.8621 34.5627 61.6857 34.9744 62.5642 35.0843 63.4701 35.1941 64.3486 34.9744 65.1173 34.5078 65.3094 34.3979 65.4741 34.2607 65.6389 34.1509L57.8698 59.3248 47.2457 93.8051C44.2259 95.2326 41.1787 96.6876 38.1589 98.1426 32.7233 100.778 27.3152 103.413 21.9071 106.159 19.2167 107.504 16.5264 108.904 13.836 110.331 13.1497 110.688 12.4909 111.045 11.832 111.402L10.8437 111.951 9.82798 112.528C9.14167 112.912 8.51027 113.351 7.85141 113.763 7.52198 113.983 7.22 114.202 6.89057 114.449L6.39643 114.779 5.92973 115.136C4.63947 116.097 3.45901 117.222 2.41582 118.485 1.29027 119.83 0.521597 121.45 0.192167 123.179 0.0549049 124.085 0.0549049 125.019 0.21962 125.924 0.384335 126.803 0.686312 127.654 1.0981 128.423 1.48243 129.164 1.94913 129.878 2.47072 130.536 2.96487 131.168 3.51392 131.772 4.09042 132.348 5.21597 133.474 6.39643 134.49 7.52198 135.451L7.93376 135.807 8.40046 136.219C8.70243 136.466 9.03186 136.713 9.33384 136.96 9.93779 137.455 10.5692 137.894 11.1732 138.333 13.6439 140.117 16.0871 141.847 18.4481 143.659 20.809 145.471 23.115 147.365 25.2837 149.369 26.3818 150.357 27.425 151.4 28.4408 152.471 28.9624 152.993 29.4565 153.542 29.9232 154.091 30.3075 154.557 30.7193 155.024 31.1037 155.518 31.0213 157.934 31.1037 160.322 31.3507 162.711 31.4605 163.479 31.5429 164.248 31.6802 165.017L31.8998 166.17C31.9821 166.554 32.037 166.938 32.1468 167.323L32.4488 168.476 32.5861 169.052C32.641 169.244 32.6959 169.437 32.7783 169.629 33.0253 170.397 33.3273 171.166 33.7116 171.88 34.0685 172.649 34.5352 173.362 35.0568 174.049 35.3313 174.406 35.6608 174.735 36.0176 175.037 36.2098 175.202 36.4294 175.366 36.6491 175.476 36.8961 175.641 37.1706 175.751 37.4452 175.833 37.8021 175.943 38.1589 175.97 38.5158 175.943 38.9276 175.888 39.3394 175.751 39.6688 175.504 39.9708 175.284 40.2179 175.01 40.41 174.708 40.5473 174.46 40.6846 174.186 40.7669 173.911 41.014 173.033 41.0963 172.1 41.014 171.166 40.8767 169.574 40.5199 167.982 40.0257 166.444 39.559 164.962 39.01 163.479 38.3786 162.052 37.7472 160.624 37.0059 159.224 36.1824 157.907 35.7706 157.22 35.3588 156.589 34.8921 155.957 34.5078 155.436 34.1234 154.942 33.7391 154.42 33.7391 154.146 33.7665 153.871 33.794 153.569 33.9587 150.604 34.3156 147.667 34.7823 144.702 35.7431 138.8 37.0883 132.98 38.7903 127.242 39.6139 124.36 40.5473 121.505 41.5081 118.677 42.469 115.849 43.5122 113.022 44.6377 110.277L44.6377 110.249 44.6652 110.167 48.8379 96.3582C50.842 95.3973 52.846 94.464 54.85 93.5306 56.4972 92.7619 58.1443 91.9932 59.7915 91.2246 67.0664 87.5734 73.7922 83.2084 74.6433 82.5496 71.6784 83.0712 55.0697 90.1539 53.7794 90.703 53.7794 90.703 53.7519 90.703 53.7519 90.703 53.7245 90.703 53.7245 90.703 53.7245 90.7304 53.7245 90.7304 53.7245 90.7304 53.7245 90.7304 53.7245 90.7304 53.7245 90.7304 53.7245 90.7304 52.4891 91.3069 51.2538 91.8834 50.0184 92.4874L59.6817 59.8464 74.7805 9.52601 74.7805 9.49856C74.8903 9.14167 74.7256 8.72989 74.3413 8.56517ZM55.5913 27.8917C55.5638 28.6329 55.5089 29.3467 55.4265 30.0879 55.3442 30.8291 55.2069 31.5429 55.0697 32.2567 54.4657 35.1392 53.5598 37.9393 52.3519 40.6297 51.7479 41.9748 51.0891 43.2925 50.4027 44.5828 49.7164 45.9005 49.0027 47.1908 48.234 48.4536 47.8497 49.085 47.4653 49.7164 47.0535 50.3204 46.6692 50.9243 46.2025 51.4734 45.6809 51.9401L45.4887 52.0773C45.4338 52.1048 45.3515 52.1322 45.2966 52.1871 45.2142 52.2146 45.1044 52.2421 44.9946 52.2146 44.775 52.0499 44.6103 51.8303 44.5279 51.5557 44.3083 50.8694 44.171 50.1831 44.0887 49.4694 43.7867 46.5319 43.7043 43.5945 43.8141 40.6571 43.8965 37.7197 44.0887 34.7823 44.4455 31.8449 44.775 28.9349 45.2691 26.0249 45.9829 23.1699 46.3398 21.7698 46.8065 20.3697 47.3555 19.0246 47.63 18.3657 47.9595 17.7068 48.3163 17.1029 48.4811 16.8009 48.6732 16.5264 48.8929 16.2793 49.085 16.0597 49.3046 15.895 49.5792 15.7577 49.7988 15.6754 50.0733 15.6754 50.2929 15.7577 50.5675 15.8675 50.842 16.0048 51.0616 16.2244 51.5832 16.6911 52.0224 17.2127 52.4068 17.7892 53.2029 18.9971 53.9167 20.2599 54.4932 21.5776 54.603 21.7973 54.7128 22.0443 54.8226 22.264 54.6579 21.9894 54.4657 21.7149 54.2735 21.4404 54.1637 21.3031 54.0265 21.1659 53.8892 21.0286 53.7519 20.8913 53.5872 20.7815 53.3951 20.6992 53.2029 20.6168 53.0107 20.5894 52.7911 20.6168 52.5989 20.6717 52.4068 20.7541 52.2421 20.8639 51.9401 21.111 51.693 21.4129 51.5008 21.7424 51.3087 22.0718 51.144 22.4012 50.9792 22.7306 50.6773 23.417 50.4302 24.1033 50.2106 24.817 49.7713 26.2446 49.4144 27.6721 49.1125 29.1271 48.8105 30.5821 48.5634 32.037 48.3438 33.492 48.5909 32.037 48.8654 30.5821 49.1948 29.1271 49.5243 27.6721 49.8811 26.2446 50.3478 24.8445 50.5675 24.1307 50.842 23.4444 51.144 22.7856 51.3087 22.4561 51.4734 22.1267 51.6656 21.8247 51.8577 21.5227 52.0773 21.2482 52.3793 21.0286 52.5166 20.9188 52.6813 20.8639 52.846 20.809 53.0107 20.7815 53.1754 20.809 53.3402 20.8639 53.6421 21.0286 53.9167 21.2757 54.1088 21.5776 54.5481 22.1541 54.8775 22.813 55.0971 23.4993 55.454 24.9543 55.6462 26.4367 55.5913 27.8917ZM33.7665 159.334C34.5352 160.542 35.2215 161.832 35.798 163.15 36.402 164.468 36.9236 165.84 37.3628 167.213 37.8021 168.558 38.104 169.931 38.2413 171.331 38.2962 171.907 38.2687 172.511 38.1315 173.06 38.104 173.143 38.0766 173.225 38.0491 173.253 37.8844 173.17 37.7197 173.088 37.5824 172.951 37.3628 172.758 37.1706 172.539 36.9785 172.319 36.5667 171.798 36.2098 171.249 35.9353 170.645 35.6333 170.013 35.3588 169.382 35.1392 168.723 35.0843 168.558 35.0294 168.393 34.9744 168.229L34.8646 167.735 34.5901 166.691C34.4803 166.335 34.4254 165.978 34.3705 165.621L34.1509 164.55C34.0411 163.836 33.9587 163.123 33.8489 162.381 33.7391 161.283 33.6567 160.158 33.6018 159.06 33.6567 159.142 33.7116 159.224 33.7665 159.334ZM42.3317 109.426C41.1787 112.253 40.1355 115.053 39.1472 117.908 38.1589 120.763 37.2256 123.646 36.3471 126.556 34.5901 132.376 33.19 138.306 32.1743 144.318 31.7625 146.706 31.4605 149.122 31.2684 151.538 30.9664 151.208 30.6644 150.851 30.3624 150.549 29.3192 149.424 28.2211 148.353 27.0956 147.31 24.8445 145.224 22.4836 143.274 20.0678 141.408 17.6519 139.541 15.1812 137.784 12.7379 136.027 12.134 135.588 11.53 135.149 10.9535 134.709 10.6516 134.49 10.377 134.27 10.1025 134.05L9.71818 133.721 9.27894 133.392C8.12593 132.376 7.00038 131.442 6.01209 130.427 5.51795 129.933 5.05125 129.411 4.63947 128.862 4.22768 128.34 3.8708 127.791 3.56882 127.187 3.2943 126.638 3.07468 126.062 2.96487 125.43 2.85506 124.854 2.85506 124.25 2.93741 123.673 3.21194 122.438 3.76099 121.285 4.58456 120.324 5.49049 119.254 6.50624 118.293 7.60433 117.469 9.85544 115.712 12.4634 114.312 15.1263 112.912 17.7617 111.512 20.4521 110.139 23.1424 108.794 28.5231 106.104 33.9313 103.441 39.3668 100.833 41.563 99.7623 43.7592 98.7191 45.9554 97.6759L42.3317 109.426Z" fill="#2F5597" transform="matrix(1.25835 0 0 1 1639 1023.04)"/><path d="M396.606 15.0165C378.158 15.4832 359.71 16.3342 341.289 17.4598 322.841 18.5853 304.448 19.9854 286.055 21.6325 267.662 23.2797 249.296 25.1739 230.958 27.2878 194.254 31.4605 157.687 36.4843 121.203 42.3043L114.367 43.4024C112.088 43.7592 109.782 44.1436 107.504 44.5828 105.17 44.9946 102.892 45.5711 100.641 46.2574 100.037 46.4496 99.4603 46.6692 98.8838 46.9437 98.5818 47.081 98.2524 47.2457 97.9779 47.4379 97.5935 47.6575 97.2367 47.9595 96.9621 48.3163 96.7151 48.6183 96.5778 48.9478 96.4954 49.3321 96.468 49.5792 96.468 49.7988 96.4954 50.0459 96.5503 50.2655 96.6052 50.4576 96.7151 50.6498 96.77 50.7322 96.7974 50.8145 96.8523 50.8694 96.9072 50.9243 96.9347 50.9792 96.9896 51.0341 97.0445 51.0891 97.0719 51.1165 97.0994 51.1714L97.1543 51.2263 97.2367 51.3361 97.3465 51.5008C97.6759 51.9401 97.9779 52.4068 98.3073 52.8735 100.805 56.6619 102.974 60.6425 104.814 64.8153L105.143 65.584 105.472 66.3801C105.692 66.9017 105.912 67.4233 106.104 67.9449 106.296 68.4665 106.516 69.0155 106.708 69.5371 106.9 70.0587 107.037 70.5803 107.202 71.1019 107.806 73.2157 108.135 75.3845 108.19 77.5807 108.273 79.7494 108.053 81.9182 107.504 84.0046 107.367 84.4987 107.202 84.9929 107.01 85.4595 106.845 85.8988 106.625 86.3106 106.351 86.7224 106.296 86.8047 106.241 86.8871 106.159 86.9694 106.104 87.0518 106.049 87.1067 105.967 87.1616 105.912 87.2165 105.857 87.2439 105.802 87.2989 105.774 87.2989 105.774 87.3263 105.747 87.3263L105.692 87.2989 105.692 87.2989C105.692 87.2989 105.665 87.2989 105.665 87.3263 105.637 87.2989 105.692 87.3538 105.555 87.2714L105.253 87.1341C104.319 86.6125 103.441 86.036 102.59 85.3772 101.711 84.6909 100.833 83.9771 99.9545 83.2359 98.1975 81.7809 96.468 80.2436 94.711 78.7611 92.9541 77.2513 91.1697 75.7688 89.3303 74.3138 89.2205 74.2315 89.0833 74.1217 88.946 74.0119 88.8637 73.957 88.7538 73.8746 88.6715 73.8197 89.0284 71.9529 89.3578 70.0862 89.5774 68.1919L89.797 66.1879C89.8519 65.5291 89.9068 64.8427 89.9618 64.1839 90.0167 63.525 90.0441 62.8662 90.0716 62.1798 90.099 61.4935 90.1265 60.8347 90.1265 60.1209L90.1265 60.066C90.1265 59.8189 90.0441 59.5444 89.9068 59.3248 89.4951 58.6385 88.6166 58.4189 87.9303 58.8306L87.3538 59.1875 87.0792 59.3522C86.9969 59.4071 86.8871 59.4895 86.8047 59.5444L86.2557 59.9562C86.091 60.1209 85.9262 60.2856 85.7615 60.4229 85.6792 60.5052 85.5968 60.5876 85.5145 60.67L85.2948 60.9445C85.1576 61.1367 84.9929 61.3014 84.883 61.4935L84.4987 62.07C84.3614 62.2622 84.2791 62.4544 84.1693 62.6465L84.0046 62.9485C83.9497 63.0583 83.9222 63.1407 83.8673 63.2505 83.785 63.4427 83.7026 63.6623 83.6202 63.8545 83.483 64.2662 83.3457 64.678 83.2633 65.0898 83.0712 65.8859 82.9339 66.7095 82.879 67.5056 82.7143 69.0979 82.7143 70.6627 82.6594 72.1176 82.6319 73.1059 82.577 74.0668 82.4123 74.9453 82.1103 75.3845 81.8633 75.8512 81.6711 76.3453 81.4789 76.812 81.3142 77.2787 81.177 77.7454 81.177 77.7454 81.177 77.7454 81.177 77.7729 81.177 77.8003 81.1495 77.8278 81.1495 77.8827 81.0122 78.3768 80.5455 80.1887 80.1612 83.0712L80.1612 83.0712C80.1612 83.0712 80.1612 83.0712 80.1612 83.0712 80.1338 83.2084 80.1338 83.3732 80.1063 83.5104 79.969 84.6909 79.8867 85.8713 79.8318 87.0518 79.7769 88.2322 79.7494 89.3852 79.7769 90.6206L79.7769 90.6481C79.7769 91.1697 80.0789 91.6638 80.5455 91.9109 81.2593 92.2952 82.1378 92.0207 82.5221 91.3069L83.4555 89.4951 83.9222 88.5891 84.334 87.6557C84.6085 87.0243 84.883 86.4204 85.1576 85.789L85.8713 83.8673C85.9811 83.5379 86.1184 83.2359 86.2282 82.9065L86.5302 81.9456C86.7224 81.3142 86.9694 80.6828 87.1341 80.024L87.6832 78.0748C87.793 77.7179 87.8754 77.3336 87.9577 76.9767 89.6049 78.267 91.2246 79.6396 92.8168 80.9848 94.5738 82.4672 96.3033 83.9771 98.0877 85.487 98.9662 86.2282 99.8721 86.9694 100.833 87.7106 101.821 88.4793 102.864 89.1656 103.935 89.7696L104.402 89.9892C104.621 90.099 104.868 90.1814 105.088 90.2363 105.225 90.2637 105.39 90.2637 105.527 90.2912 105.665 90.2912 105.829 90.2912 105.967 90.2912 106.104 90.2637 106.269 90.2637 106.378 90.2088 106.516 90.1814 106.625 90.1265 106.763 90.0716 106.818 90.0441 106.9 90.0167 106.955 89.9892L107.12 89.9068 107.422 89.7147C107.586 89.5774 107.778 89.4401 107.943 89.3029 108.08 89.1656 108.245 89.0009 108.355 88.8637 108.465 88.7264 108.602 88.5617 108.684 88.4244 109.069 87.8754 109.398 87.2714 109.645 86.6125 109.892 86.036 110.084 85.4321 110.249 84.8007 110.853 82.4123 111.128 79.969 111.018 77.5258 110.935 75.11 110.551 72.6941 109.892 70.3607 109.728 69.7842 109.535 69.2077 109.343 68.6312 109.151 68.0547 108.931 67.5605 108.712 66.984 108.492 66.4075 108.273 65.8859 108.053 65.3369L107.723 64.5133 107.367 63.7172C105.445 59.4346 103.194 55.3167 100.586 51.391 100.256 50.8969 99.927 50.4302 99.5427 49.9086L99.4878 49.8262C99.6525 49.7164 99.8446 49.6341 100.009 49.5517 100.504 49.3321 100.97 49.1399 101.464 48.9752 103.606 48.3163 105.802 47.7673 107.998 47.3555 110.249 46.9163 112.473 46.5319 114.779 46.1751L121.614 45.0495C139.815 42.0846 158.044 39.3119 176.327 36.7314 194.611 34.1509 212.894 31.7351 231.205 29.5389 249.516 27.3152 267.854 25.3112 286.219 23.5268 304.585 21.7424 322.951 20.1776 341.371 18.8598 378.185 16.2793 415.054 14.6871 451.978 14.9616 433.529 14.4675 415.054 14.5498 396.606 15.0165ZM84.2791 79.2278C84.1144 79.8592 83.8948 80.4632 83.7026 81.0671L83.4006 81.9731C83.3183 82.2202 83.2359 82.4398 83.1535 82.6869 83.2359 81.9731 83.3732 81.2593 83.5104 80.5455 83.5653 80.2436 83.6202 79.9416 83.7026 79.6396 84.0046 79.2553 84.2791 78.8435 84.4987 78.4043L84.2791 79.2278ZM86.942 64.0192C86.9145 64.6506 86.8322 65.3094 86.7773 65.9408L86.5576 67.8625C86.338 69.5371 86.091 71.1843 85.7615 72.8589 85.7066 72.8589 85.6517 72.8589 85.5968 72.8589 85.5968 72.6667 85.6243 72.4745 85.6243 72.2824 85.6792 70.745 85.6792 69.2626 85.8439 67.8625 85.8988 67.1762 86.0086 66.4899 86.1733 65.831 86.2557 65.5016 86.338 65.1996 86.4478 64.8976 86.5027 64.7329 86.5576 64.5957 86.6125 64.4584 86.64 64.376 86.6675 64.3211 86.6949 64.2388L86.8047 64.0466C86.8596 63.9643 86.8871 63.8545 86.942 63.7721 86.9694 63.8545 86.9694 63.9368 86.942 64.0192Z" fill="#2F5597" transform="matrix(1.25835 0 0 1 1639 1023.04)"/></g></g></g></g></svg>